<svg xmlns="http://www.w3.org/2000/svg" xmlns:xlink="http://www.w3.org/1999/xlink" viewBox="0 0 1440 316"><defs><path id="a" d="M0 0h1440v316H0z"/></defs><g fill="none"><mask id="b"><use xlink:href="#a"/></mask><use fill="#1D7CF8" xlink:href="#a"/><g stroke="#1256AE" stroke-width="3" stroke-linejoin="round" mask="url(#b)" opacity=".3"><path d="M362.6-317c-9.73 117.33 2.94 250.33 38 399m14.58-471c-9.74 117.33 2.92 250.33 38 399m235.56 267c-9.74 117.33 2.93 250.33 38 399m15-455c-9.74 117.33 2.93 250.33 38 399M301.5-218.5C181.83-57.5 118.33 134 111 356m207-473C216.67 35 160.67 211.33 150 412M327-17c-74 129.33-121.67 294.33-143 495M338 56c26 94 47 198.33 63 313m-99-225c26 94 47 198.33 63 313m-95-217c26 94 47 198.33 63 313m79-409C496.4 78.67 559.4 7.67 601-69M377.3 246.8c88.8-59.3 156.64-125.75 203.54-199.35M345.6 340.12c91.78-54.58 163-117.4 213.67-188.45M322.12 423.04c93.57-51.38 166.9-111.7 219.96-180.96M320.04 487.52c93.57-51.38 166.9-111.7 219.96-180.96M-175 42C-90.6-23.33-27.6-94.33 14-171M-201.38 103.9C-112.58 44.6-44.74-21.82 2.15-95.42M-224.84 167.22c91.77-54.58 163-117.4 213.66-188.45M-241.92 230.7C-148.35 179.3-75.02 119-21.96 49.72M-244 295.17c93.57-51.38 166.9-111.7 219.96-180.96M83.5 244c-24.07-9.67-43.84-17.33-59.3-23m51.3 63c-40.07-15-67.84-25.33-83.3-31m77.3 75c-52.53-18.33-86.53-30.33-102-36m1337.1-609c-9.73 117.33 2.94 250.33 38 399m14.58-471c-9.74 117.33 2.92 250.33 38 399M1243.5-218.5C1123.83-57.5 1060.33 134 1053 356m207-473c-101.33 152-157.33 328.33-168 529m177-429c-74 129.33-121.67 294.33-143 495m154-422c26 94 47 198.33 63 313m-99-225c26 94 47 198.33 63 313m-95-217c26 94 47 198.33 63 313m79-409c84.4-65.33 147.4-136.33 189-213M1317.42 312.74c88.8-59.3 156.64-125.75 203.53-199.35M1281 455.04c91.78-54.58 163-117.4 213.67-188.45M1252.82 570c93.57-51.4 166.9-111.7 219.96-180.97M1250.74 634.47c93.57-51.38 166.9-111.7 219.96-180.96M767 42c84.4-65.33 147.4-136.33 189-213M738.73 169.85c88.8-59.3 156.64-125.74 203.54-199.34M710.56 282.14c91.78-54.58 163-117.4 213.67-188.45M688.77 377.64c93.57-51.38 166.9-111.7 219.96-180.96M686.7 442.12c93.56-51.38 166.88-111.7 219.95-180.96M1025.5 244c-24.07-9.67-43.84-17.33-59.3-23m51.3 63c-40.07-15-67.84-25.33-83.3-31m77.3 75c-52.53-18.33-86.53-30.33-102-36"/></g><circle cx="376" cy="330" r="54" fill="#02B3E4" mask="url(#b)"/></g></svg>