<?xml version="1.0" encoding="UTF-8"?>
<svg width="576px" height="528px" viewBox="0 0 576 528" version="1.1" xmlns="http://www.w3.org/2000/svg" xmlns:xlink="http://www.w3.org/1999/xlink">
    <!-- Generator: Sketch 53 (72520) - https://sketchapp.com -->
    <title>Group</title>
    <desc>Created with Sketch.</desc>
    <defs>
        <polygon id="path-1" points="0 4.94604357e-14 576 4.94604357e-14 576 528 1.09662279e-13 528"></polygon>
    </defs>
    <g id="Homepage" stroke="none" stroke-width="1" fill="none" fill-rule="evenodd">
        <g id="homepage" transform="translate(-126.000000, -192.000000)">
            <g id="hero" transform="translate(0.000000, 96.000000)">
                <g id="Group-12" transform="translate(126.000000, 96.000000)">
                    <g id="Group">
                        <mask id="mask-2" fill="white">
                            <use xlink:href="#path-1"></use>
                        </mask>
                        <use id="Rectangle" fill="#1D7CF8" xlink:href="#path-1"></use>
                        <g id="Group-3" mask="url(#mask-2)" opacity="0.300000012" stroke="#1256AE" stroke-linejoin="round" stroke-width="3">
                            <g transform="translate(-146.000000, -105.000000)">
                                <path d="M310,776 C293.243243,744.29776 259.330759,702.556436 208.262548,650.776026 C157.194337,598.995617 87.7734878,597.770989 0,647.102143" id="Path-3"></path>
                                <path d="M348,768 C273.817544,645.803446 214.391813,568.332429 169.722807,535.586947 C125.053801,502.841465 70.8128655,499.247449 7,524.804898" id="Path-5"></path>
                                <path d="M380,758 C375.941321,749.628521 344.861851,697.298444 286.761589,601.009768 C199.611197,456.576753 157.662252,394.378306 19,401.55505" id="Path-6"></path>
                                <path d="M564.543807,817 C480,688.059778 458.864048,619.297919 501.135952,610.714423 C543.407855,602.130927 624.362538,670.892786 744,817" id="Path-7"></path>
                                <path d="M500.951708,777 C415.712838,637.999911 397.788777,554.519973 447.179523,526.560185 C496.57027,498.600397 620.843763,576.088952 820,759.025851" id="Path-8"></path>
                                <path d="M867,740 C753.047148,585.363194 639.891168,482.950701 527.532062,432.76252 C358.993403,357.480249 79.2909469,240.290792 177.306337,0" id="Path-9"></path>
                                <path d="M900,758 C798.022927,583.444795 676.925153,453.923239 536.706677,369.435331 C326.378964,242.70347 358.047626,62.170347 379.558415,0" id="Path-10"></path>
                                <path d="M947.064652,728 C811.55313,500.728872 688.789096,344.031411 578.77255,257.907615 C413.747731,128.721921 791.624965,-122.472483 965,483.982579" id="Path-12"></path>
                                <path d="M441,768 C353.357724,578.970233 270.097561,437.397306 191.219512,343.28122 C72.902439,202.10709 15.5365854,178.904632 0,93" id="Path"></path>
                                <path d="M951,598 C808.881861,410.328995 711.075838,296.940633 657.581932,257.834913 C577.341072,199.176333 698.301174,29.1533643 951,496.027777" id="Path-2"></path>
                                <path d="M918,748 C815.611391,548.546448 697.685212,403.743169 564.221461,313.590164 C364.025835,178.360656 473.78483,63.4754098 542.707901,18" id="Path-4"></path>
                            </g>
                        </g>
                    </g>
                </g>
            </g>
        </g>
    </g>
</svg>