<svg xmlns="http://www.w3.org/2000/svg" width="48" height="54"><title>icon-school-cloud</title><desc>Created with Sketch.</desc><g fill="none"><g><g><path fill="#2A77AA" d="M26.8 1.62l17.77 10.26c1.74 1 2.8 2.86 2.8 4.87v20.5c0 2-1.06 3.87-2.8 4.87L26.8 52.38c-1.73 1-3.87 1-5.6 0L3.42 42.12c-1.74-1-2.8-2.86-2.8-4.87v-20.5c0-2 1.06-3.87 2.8-4.87L21.2 1.62c1.73-1 3.87-1 5.6 0z"/><path stroke="#fff" stroke-width="2.813" d="M36.98 28.13h-.27c.02-.13.03-.27.03-.4 0-3.07-2.5-5.55-5.56-5.55-.3 0-.6.02-.9.07-1-4.18-4.76-7.3-9.26-7.3-5.25 0-9.5 4.26-9.5 9.5 0 .07 0 .13 0 .2-2.65.65-4.6 3.03-4.6 5.86 0 3.35 2.72 6.06 6.07 6.06h24c2.35 0 4.24-1.88 4.24-4.2 0-2.34-1.88-4.23-4.22-4.23"/></g></g></g></svg>